# xmcd
#
# Track frame offsets:
#	150
#	38158
#	58120
#	117071
#	161448
#	180503
#	214216
#	252661
#
# Disc length: 4237 seconds
#
# Revision: 1
# Processed by: cddbd v1.5.2PL0 Copyright (c) Steve Scherf et al.
# Submitted via: audiograbber 1.83.01
#
DISCID=6c108b08
DTITLE=Grateful Dead - 71-03-03 Fillmore West, San Francisco CA
DYEAR=1900
DGENRE=
TTITLE0=Truckin'
TTITLE1=Drums
TTITLE2=The Other One
TTITLE3=Wharf Rat
TTITLE4=Sugar Magnolia
TTITLE5=King Bee
TTITLE6=Greatest Story Ever Told > Johnny B Goode
TTITLE7=Good Lovin'
EXTD=
EXTT0=
EXTT1=
EXTT2=
EXTT3=
EXTT4=
EXTT5=
EXTT6=
EXTT7=
PLAYORDER=
